<svg width="24" height="24" viewBox="0 0 24 24" fill="none" xmlns="http://www.w3.org/2000/svg">
<g opacity="0.5">
<path d="M4.02999 15.7581L3.02999 19.7581C2.94399 20.0991 3.04499 20.4591 3.29299 20.7071C3.48199 20.8961 3.73799 21.0001 3.99999 21.0001C4.08099 21.0001 4.16199 20.9901 4.24199 20.9701L8.24198 19.9701C8.41798 19.9261 8.57899 19.8351 8.70698 19.7071L16.999 11.4151L18.293 12.7071L19.707 11.2931L18.413 10.0011L21 7.41411C21.378 7.03611 21.586 6.53411 21.586 6.00011C21.586 5.46611 21.378 4.96411 21 4.58611L19.414 3.00011C18.658 2.24411 17.342 2.24411 16.586 3.00011L13.997 5.58911L12.699 4.29311L11.285 5.70711L12.583 7.00311L4.29299 15.2931C4.16499 15.4211 4.07399 15.5821 4.02999 15.7581ZM5.90299 16.5121L13.998 8.41711L15.584 10.0011L7.48799 18.0971L5.37399 18.6261L5.90299 16.5121Z" fill="#4A86CC"/>
</g>
</svg>
