<svg width="29" height="28" viewBox="0 0 29 28" fill="none" xmlns="http://www.w3.org/2000/svg">
<path d="M14.75 2.33331C11.5335 2.33331 8.91667 4.95015 8.91667 8.16665C8.91667 11.3831 11.5335 14 14.75 14C17.9665 14 20.5833 11.3831 20.5833 8.16665C20.5833 4.95015 17.9665 2.33331 14.75 2.33331ZM14.75 11.6666C12.8203 11.6666 11.25 10.0963 11.25 8.16665C11.25 6.23698 12.8203 4.66665 14.75 4.66665C16.6797 4.66665 18.25 6.23698 18.25 8.16665C18.25 10.0963 16.6797 11.6666 14.75 11.6666ZM25.25 24.5V23.3333C25.25 18.8311 21.5855 15.1666 17.0833 15.1666H12.4167C7.91333 15.1666 4.25 18.8311 4.25 23.3333V24.5H6.58333V23.3333C6.58333 20.1168 9.20017 17.5 12.4167 17.5H17.0833C20.2998 17.5 22.9167 20.1168 22.9167 23.3333V24.5H25.25Z" fill="#A3A3A3"/>
</svg>
